<?xml version="1.0" encoding="UTF-8" standalone="no"?>
<!-- Created with Inkscape (http://www.inkscape.org/) -->

<svg
   width="66"
   height="90"
   viewBox="0 0 66 90"
   version="1.1"
   id="svg5"
   sodipodi:docname="ghost.svg"
   inkscape:version="1.1.1 (c3084ef, 2021-09-22)"
   xmlns:inkscape="http://www.inkscape.org/namespaces/inkscape"
   xmlns:sodipodi="http://sodipodi.sourceforge.net/DTD/sodipodi-0.dtd"
   xmlns="http://www.w3.org/2000/svg"
   xmlns:svg="http://www.w3.org/2000/svg">
  <sodipodi:namedview
     id="namedview846"
     pagecolor="#ffffff"
     bordercolor="#000000"
     borderopacity="0.25"
     inkscape:pageshadow="2"
     inkscape:pageopacity="0.0"
     inkscape:pagecheckerboard="0"
     showgrid="false"
     inkscape:zoom="12.350717"
     inkscape:cx="20.241739"
     inkscape:cy="81.979045"
     inkscape:window-width="1512"
     inkscape:window-height="916"
     inkscape:window-x="0"
     inkscape:window-y="38"
     inkscape:window-maximized="1"
     inkscape:current-layer="layer1"
     inkscape:snap-global="false" />
  <defs
     id="defs2" />
  <g
     id="layer1"
     transform="matrix(2.9665854,0,0,2.9597528,0.23960055,0.34031059)"
     style="stroke-width:0.337477">
    <path
       style="fill:none;stroke:#000000;stroke-width:0.101243;stroke-linecap:square;stroke-miterlimit:4;stroke-dasharray:none;stroke-opacity:1"
       d="m 3.8326834,15.602887 c 0,0 -1.8237233,-0.03149 -2.1290573,1.766708 -0.305334,1.798196 0.2330996,8.492964 -0.3333495,9.123048 -0.56644903,0.630084 -0.90026203,0.70411 -1.22303746,0.100986 C -0.17553628,25.99051 -0.01814084,7.3818153 -0.01814084,7.3818153 c 0,0 -0.41325937,-7.26259506 4.37368564,-7.29737834 2.7147557,-0.01972618 4.4578004,2.64686434 6.3428282,2.64910604 1.889501,0.00225 5.113144,-3.16624671 7.408597,-2.73823197 4.153881,0.77454102 3.819555,6.58252327 3.957965,7.81482107 0.13841,1.2322978 -0.0091,20.0621359 -0.0091,20.0621359"
       id="path1097"
       sodipodi:nodetypes="czzzcssszc" />
    <path
       style="fill:none;stroke:#000000;stroke-width:0.101243;stroke-linecap:square;stroke-miterlimit:4;stroke-dasharray:none;stroke-opacity:1"
       d="m 20.153784,6.8776748 c 0,0 0.507637,16.3980392 -0.412763,17.3084122 -0.9204,0.910373 -1.599439,-0.320969 -1.561231,-0.952004 C 18.218,22.603048 18.16186,20.993035 18.16003,18.017 18.15823,15.040965 15.950131,15.238252 15.950131,15.238252"
       id="path3273-8"
       sodipodi:nodetypes="czzzc" />
    <path
       style="fill:none;stroke:#000000;stroke-width:0.101243;stroke-linecap:square;stroke-miterlimit:4;stroke-dasharray:none;stroke-opacity:1"
       d="m 1.5774903,27.352523 c 0,0 -1.48285088,0.167965 -1.47150588,1.287152 C 0.11732943,29.758863 1.8268962,30 1.8268962,30 c 0,0 17.0762948,0.303409 18.6363968,0 1.560102,-0.303409 1.573393,-2.022378 1.573393,-2.022378"
       id="path3770"
       inkscape:label="drain"
       sodipodi:nodetypes="czczc" />
    <path
       style="fill:none;stroke:#000000;stroke-width:0.101243;stroke-linecap:square"
       d="m 3.1169753,18.324286 c 0,0 -0.1070243,5.200888 0.390324,6.54446 0.4973483,1.343572 2.6596132,2.279078 2.6596132,2.279078"
       id="path1179"
       sodipodi:nodetypes="czc" />
    <path
       style="fill:none;stroke:#000000;stroke-width:0.101243;stroke-linecap:square"
       d="m 5.2608051,19.535053 c 0,0 -0.5441238,-0.892678 -0.6465498,0.189478 -0.1189072,1.256288 0.078205,3.01151 0.4925527,3.796192 0.4141616,0.784329 1.7580266,2.288548 2.3347431,2.146748 0.5090023,-0.12515 0.2131166,-0.638806 0.2131166,-0.638806"
       id="path1179-2"
       sodipodi:nodetypes="csssc" />
    <path
       style="fill:none;stroke:#000000;stroke-width:0.101243;stroke-linecap:square"
       d="m 12.870079,27.01376 c 0,0 2.391773,-1.084831 3.232862,-2.640485 0.84109,-1.555654 0.297868,-6.331982 0.297868,-6.331982"
       id="path1181"
       sodipodi:nodetypes="czc" />
    <path
       style="fill:none;stroke:#000000;stroke-width:0.101243;stroke-linecap:square"
       d="m 11.864604,24.466556 c 0,0 -0.320928,0.774171 0.566141,0.371888 0.490457,-0.222421 1.346787,-0.64596 1.821932,-1.318784 0.47992,-0.679586 0.944183,-2.888038 0.775397,-4.046393 -0.146707,-1.006826 -0.616271,-0.168149 -0.616271,-0.168149"
       id="path1181-2"
       sodipodi:nodetypes="csssc" />
    <path
       style="fill:none;stroke:#000000;stroke-width:0.101243;stroke-linecap:square"
       d="m 5.2696073,19.554076 2.3850612,5.474589"
       id="path1235"
       inkscape:label="slingshot"
       sodipodi:nodetypes="cc" />
    <path
       style="fill:none;stroke:#000000;stroke-width:0.101243;stroke-linecap:square"
       d="m 11.869516,24.481327 2.58159,-5.235293"
       id="path1237"
       inkscape:label="slingshot"
       sodipodi:nodetypes="cc" />
    <ellipse
       style="fill:none;fill-rule:evenodd;stroke:#000000;stroke-width:0.0892906;stroke-opacity:1"
       id="path1443-2-1"
       inkscape:label="bumper"
       cy="11.930614"
       cx="10.322876"
       rx="2.5480659"
       ry="2.5539482" />
    <circle
       style="fill:none;fill-rule:evenodd;stroke:#000000;stroke-width:0.0892906;stroke-opacity:1"
       id="path1443-2-1-3"
       cx="14.348636"
       cy="6.7268748"
       inkscape:label="bumper"
       r="1.5" />
    <circle
       style="fill:none;fill-rule:evenodd;stroke:#000000;stroke-width:0.0892906;stroke-opacity:1"
       id="path1443-2-1-3-5"
       cx="5.894927"
       cy="6.659843"
       inkscape:label="bumper"
       r="1.5" />
    <circle
       style="fill:#000000;fill-opacity:1;fill-rule:evenodd;stroke:#000000;stroke-width:0.0892906;stroke-opacity:1"
       id="path1443-2-1-3-5-2"
       cx="21.050299"
       cy="7.9986739"
       inkscape:label="ball"
       r="0.40000001" />
    <rect
       style="fill:#000000;fill-opacity:1;stroke:#000000;stroke-width:0.101243;stroke-linecap:square;stroke-opacity:1"
       id="rect1372"
       width="1"
       height="1"
       x="18.768866"
       y="18.553572"
       inkscape:label="kicker" />
    <rect
       style="fill:#000000;fill-opacity:1;stroke:#000000;stroke-width:0.101243;stroke-linecap:square;stroke-opacity:1"
       id="rect1372-7"
       width="1.6115816"
       height="0.54892844"
       x="20.356802"
       y="20.804848"
       inkscape:label="kicker" />
    <rect
       style="fill:#000000;fill-opacity:1;stroke:#000000;stroke-width:0.101243;stroke-linecap:square;stroke-opacity:1"
       id="rect1372-9"
       width="1"
       height="1"
       x="0.30437946"
       y="18.589827"
       inkscape:label="kicker" />
    <rect
       style="fill:#000000;stroke:none;stroke-width:0.382651;stroke-linecap:square"
       id="rect1713"
       width="3.3143015"
       height="0.38288307"
       x="18.645369"
       y="20.929613"
       transform="matrix(0.8728699,0.487953,-0.48623964,0.8738255,0,0)"
       inkscape:label="flipper-left" />
    <rect
       style="fill:#000000;stroke:none;stroke-width:0.382651;stroke-linecap:square"
       id="rect1713-0"
       width="3.3143015"
       height="0.40595779"
       x="1.8298273"
       y="30.191334"
       transform="matrix(-0.8728699,0.487953,0.48623964,0.8738255,0,0)"
       inkscape:label="flipper-right" />
    <ellipse
       style="fill:none;fill-rule:evenodd;stroke-width:0.12755027;stroke:#ff0909;stroke-opacity:1;stroke-miterlimit:4;stroke-dasharray:none"
       id="path951"
       cx="6.1804643"
       cy="27.649323"
       rx="0.2515673"
       ry="0.25214803"
       inkscape:label="flipper-anchor-left" />
    <ellipse
       style="fill:none;fill-rule:evenodd;stroke:#ff0909;stroke-width:0.12755;stroke-miterlimit:4;stroke-dasharray:none;stroke-opacity:1"
       id="path951-7"
       cx="12.916878"
       cy="27.593288"
       rx="0.2515673"
       ry="0.25214803"
       inkscape:label="flipper-anchor-right" />
  </g>
</svg>
